<?xml version="1.0" encoding="UTF-8" standalone="no"?>
<!-- Created with Inkscape (http://www.inkscape.org/) -->

<svg
   width="90.398mm"
   height="18.215mm"
   version="1.1"
   viewBox="0 0 90.398 18.215"
   id="svg11"
   sodipodi:docname="logo-w.svg"
   inkscape:version="1.1.1 (c3084ef, 2021-09-22)"
   xmlns:inkscape="http://www.inkscape.org/namespaces/inkscape"
   xmlns:sodipodi="http://sodipodi.sourceforge.net/DTD/sodipodi-0.dtd"
   xmlns="http://www.w3.org/2000/svg"
   xmlns:svg="http://www.w3.org/2000/svg">
  <sodipodi:namedview
     id="namedview13"
     pagecolor="#505050"
     bordercolor="#ffffff"
     borderopacity="1"
     inkscape:pageshadow="0"
     inkscape:pageopacity="0"
     inkscape:pagecheckerboard="1"
     inkscape:document-units="mm"
     showgrid="false"
     inkscape:zoom="4.4371371"
     inkscape:cx="199.22756"
     inkscape:cy="37.186139"
     inkscape:window-width="2268"
     inkscape:window-height="1270"
     inkscape:window-x="113"
     inkscape:window-y="113"
     inkscape:window-maximized="0"
     inkscape:current-layer="layer2" />
  <defs
     id="defs5">
    <clipPath
       id="clipPath150">
      <path
         d="m73.365 271.61c-6.0486-1.6309-8.5509-8.4698-4.8665-13.3 0.9877-1.2949 3.5777-2.4774 5.4264-2.4774 3.3905 0 6.0734 2.6 6.0734 5.8858 0 3.0984-1.992 5.2267-4.8922 5.2267-1.3303 0-3.1468-0.78078-3.4096-1.4656-0.34592-0.90146-0.1562-1.6543 0.53026-2.1041 0.67749-0.44391 0.70947-0.43823 1.2568 0.22312 0.82272 0.99417 1.7184 1.1133 2.8172 0.37481 1.9779-1.3294 1.5448-3.9753-0.84731-5.1764-1.1021-0.55336-1.3225-0.57907-2.4755-0.28875-1.6896 0.42545-3.1071 1.8413-3.5317 3.5276-0.41584 1.6514 0.11499 3.5728 1.4027 5.0772 4.0975 4.787 12.874 1.0709 12.849-5.4407-0.0026-0.6653-0.17941-2.0349-0.39308-3.0435s-0.34438-1.8779-0.29047-1.9318c0.16019-0.16019 1.7021 1.8185 2.2049 2.8294 0.74477 1.4975 0.62984 4.7833-0.23172 6.6248-1.2275 2.6238-4.2111 4.8776-7.3173 5.5275-1.7438 0.36485-2.758 0.34873-4.3051-0.0684zm37.122-1.611-0.57283-1.1791 0.80822-0.5755c1.0831-0.77124 2.3487-2.5572 2.3487-3.3145 0-0.91061-0.91541-1.2533-3.2802-1.2281l-2.0896 0.0223 0.18282-3.8692c0.10056-2.1281 0.20743-3.888 0.2375-3.9108 0.0301-0.0229 0.50115-0.12234 1.0469-0.221l0.99218-0.17938v6.374h0.64844c1.3557 0 3.3077 0.58907 3.9623 1.1957 1.3658 1.2657 0.68842 3.4503-2.0463 6.5997-0.69961 0.80572-1.3605 1.465-1.4686 1.465s-0.45439-0.53058-0.76944-1.1791zm-12.355-0.61306c-1.7155-0.94257-2.8224-2.5198-2.9896-4.2598-0.18534-1.9288 0.08408-2.9446 1.266-4.7732 0.57876-0.89545 1.0523-1.6597 1.0523-1.6983 0-0.0386-1.7264 0.12007-3.8365 0.35269-3.5797 0.39464-3.8365 0.3933-3.8365-0.02 0-0.24364-0.07056-0.79575-0.15679-1.2269l-0.15679-0.78395 4.324-0.32378c2.3782-0.17808 5.0086-0.39293 5.8453-0.47744l1.5214-0.15367v1.3332c0 1.296-0.0509 1.3842-1.8252 3.1584-2.1074 2.1074-2.7147 3.4653-2.1546 4.8175 0.39722 0.95897 1.3117 1.5958 2.8582 1.9903 0.6342 0.16178 1.1562 0.38318 1.16 0.49198 4e-3 0.10881-0.0733 0.67236-0.17129 1.2523-0.15597 0.9232-0.26587 1.0537-0.8825 1.0483-0.38739-3e-3 -1.2952-0.33082-2.0174-0.7276zm47.157-2.3945-4.6914-3.106 3.9008-3.8943c2.1454-2.1419 4.0259-3.8943 4.1788-3.8943 0.15291 0 0.62772 0.36703 1.0551 0.81563l0.7771 0.81563-2.8849 2.7963c-2.7054 2.6223-2.8535 2.8192-2.3812 3.1655 0.27699 0.20308 1.7715 1.1642 3.3212 2.1359l2.8176 1.7667-0.43646 1.1755c-0.24005 0.64652-0.55546 1.2101-0.70092 1.2525-0.14546 0.0423-2.3756-1.3207-4.9558-3.029zm-20.537 2.1921c-1.29-1.64-2.1505-5.2559-2.1539-9.0518-2e-3 -1.9586 0.0489-2.1828 0.49409-2.1828 0.27285 0 0.8384-0.0678 1.2568-0.15061l0.76068-0.15062 0.048 2.4018c0.0481 2.4042 0.67304 5.3078 1.1425 5.3078 0.13731 0 0.92271-0.29765 1.7453-0.66145 0.82262-0.36381 1.5883-0.66146 1.7014-0.66146 0.19408 0 0.78671 1.4171 0.78671 1.8812 0 0.19724-2.885 2.4275-4.5356 3.5063-0.68345 0.44669-0.71139 0.44135-1.246-0.23826zm9.0171-5.5903c-0.62156-1.4004-1.0728-2.6036-1.0027-2.6736s0.61477-0.21655 1.2104-0.32547l1.0829-0.19803 1.3088 2.6081c0.71984 1.4344 1.3088 2.7293 1.3088 2.8775 0 0.14933-0.61909 0.26681-1.3891 0.2636l-1.3891-6e-3 -1.1301-2.5462zm-71.22-3.6441c-0.17396-0.2096-0.2795-0.59822-0.23454-0.8636 0.04496-0.26538-0.18145-0.7457-0.50313-1.0674-1.0772-1.0772-1.1046-2.7379-0.06244-3.7801 0.66906-0.66905 2.141-0.68985 2.7304-0.0386 0.61342 0.67783 0.55438 1.2823-0.12277 1.257-0.75872-0.0284-1.2526 0.75188-0.8658 1.368 0.57652 0.91846 1.4969 0.98758 3.1391 0.23575 0.83948-0.38432 1.8989-0.69734 2.3542-0.69558l0.82792 3e-3 -1.1855 0.67758c-0.65201 0.37267-1.8057 1.2642-2.5638 1.9812-1.1013 1.0416-1.5612 1.3036-2.2879 1.3036-0.50022 0-1.0518-0.17149-1.2258-0.3811zm50.537-2.5681-1.7056-1.827 1.1097-1.1097 2.143 1.1418c1.1786 0.628 2.143 1.2487 2.143 1.3793 0 0.39976-1.438 2.2968-1.7198 2.2688-0.14552-0.0145-1.0321-0.84845-1.9702-1.8533z"
         stroke-width=".26458"
         id="path2" />
    </clipPath>
    <clipPath
       id="clipPath150-2">
      <path
         d="m 73.365,271.61 c -6.0486,-1.6309 -8.5509,-8.4698 -4.8665,-13.3 0.9877,-1.2949 3.5777,-2.4774 5.4264,-2.4774 3.3905,0 6.0734,2.6 6.0734,5.8858 0,3.0984 -1.992,5.2267 -4.8922,5.2267 -1.3303,0 -3.1468,-0.78078 -3.4096,-1.4656 -0.34592,-0.90146 -0.1562,-1.6543 0.53026,-2.1041 0.67749,-0.44391 0.70947,-0.43823 1.2568,0.22312 0.82272,0.99417 1.7184,1.1133 2.8172,0.37481 1.9779,-1.3294 1.5448,-3.9753 -0.84731,-5.1764 -1.1021,-0.55336 -1.3225,-0.57907 -2.4755,-0.28875 -1.6896,0.42545 -3.1071,1.8413 -3.5317,3.5276 -0.41584,1.6514 0.11499,3.5728 1.4027,5.0772 4.0975,4.787 12.874,1.0709 12.849,-5.4407 -0.0026,-0.6653 -0.17941,-2.0349 -0.39308,-3.0435 -0.21367,-1.0086 -0.34438,-1.8779 -0.29047,-1.9318 0.16019,-0.16019 1.7021,1.8185 2.2049,2.8294 0.74477,1.4975 0.62984,4.7833 -0.23172,6.6248 -1.2275,2.6238 -4.2111,4.8776 -7.3173,5.5275 -1.7438,0.36485 -2.758,0.34873 -4.3051,-0.0684 z m 37.122,-1.611 -0.57283,-1.1791 0.80822,-0.5755 c 1.0831,-0.77124 2.3487,-2.5572 2.3487,-3.3145 0,-0.91061 -0.91541,-1.2533 -3.2802,-1.2281 l -2.0896,0.0223 0.18282,-3.8692 c 0.10056,-2.1281 0.20743,-3.888 0.2375,-3.9108 0.0301,-0.0229 0.50115,-0.12234 1.0469,-0.221 l 0.99218,-0.17938 v 6.374 h 0.64844 c 1.3557,0 3.3077,0.58907 3.9623,1.1957 1.3658,1.2657 0.68842,3.4503 -2.0463,6.5997 -0.69961,0.80572 -1.3605,1.465 -1.4686,1.465 -0.1081,0 -0.45439,-0.53058 -0.76944,-1.1791 z m -12.355,-0.61306 c -1.7155,-0.94257 -2.8224,-2.5198 -2.9896,-4.2598 -0.18534,-1.9288 0.08408,-2.9446 1.266,-4.7732 0.57876,-0.89545 1.0523,-1.6597 1.0523,-1.6983 0,-0.0386 -1.7264,0.12007 -3.8365,0.35269 -3.5797,0.39464 -3.8365,0.3933 -3.8365,-0.02 0,-0.24364 -0.07056,-0.79575 -0.15679,-1.2269 l -0.15679,-0.78395 4.324,-0.32378 c 2.3782,-0.17808 5.0086,-0.39293 5.8453,-0.47744 l 1.5214,-0.15367 v 1.3332 c 0,1.296 -0.0509,1.3842 -1.8252,3.1584 -2.1074,2.1074 -2.7147,3.4653 -2.1546,4.8175 0.39722,0.95897 1.3117,1.5958 2.8582,1.9903 0.6342,0.16178 1.1562,0.38318 1.16,0.49198 0.004,0.10881 -0.0733,0.67236 -0.17129,1.2523 -0.15597,0.9232 -0.26587,1.0537 -0.8825,1.0483 -0.38739,-0.003 -1.2952,-0.33082 -2.0174,-0.7276 z m 47.157,-2.3945 -4.6914,-3.106 3.9008,-3.8943 c 2.1454,-2.1419 4.0259,-3.8943 4.1788,-3.8943 0.15291,0 0.62772,0.36703 1.0551,0.81563 l 0.7771,0.81563 -2.8849,2.7963 c -2.7054,2.6223 -2.8535,2.8192 -2.3812,3.1655 0.27699,0.20308 1.7715,1.1642 3.3212,2.1359 l 2.8176,1.7667 -0.43646,1.1755 c -0.24005,0.64652 -0.55546,1.2101 -0.70092,1.2525 -0.14546,0.0423 -2.3756,-1.3207 -4.9558,-3.029 z m -20.537,2.1921 c -1.29,-1.64 -2.1505,-5.2559 -2.1539,-9.0518 -0.002,-1.9586 0.0489,-2.1828 0.49409,-2.1828 0.27285,0 0.8384,-0.0678 1.2568,-0.15061 l 0.76068,-0.15062 0.048,2.4018 c 0.0481,2.4042 0.67304,5.3078 1.1425,5.3078 0.13731,0 0.92271,-0.29765 1.7453,-0.66145 0.82262,-0.36381 1.5883,-0.66146 1.7014,-0.66146 0.19408,0 0.78671,1.4171 0.78671,1.8812 0,0.19724 -2.885,2.4275 -4.5356,3.5063 -0.68345,0.44669 -0.71139,0.44135 -1.246,-0.23826 z m 9.0171,-5.5903 c -0.62156,-1.4004 -1.0728,-2.6036 -1.0027,-2.6736 0.0701,-0.07 0.61477,-0.21655 1.2104,-0.32547 l 1.0829,-0.19803 1.3088,2.6081 c 0.71984,1.4344 1.3088,2.7293 1.3088,2.8775 0,0.14933 -0.61909,0.26681 -1.3891,0.2636 l -1.3891,-0.006 -1.1301,-2.5462 z m -71.22,-3.6441 c -0.17396,-0.2096 -0.2795,-0.59822 -0.23454,-0.8636 0.04496,-0.26538 -0.18145,-0.7457 -0.50313,-1.0674 -1.0772,-1.0772 -1.1046,-2.7379 -0.06244,-3.7801 0.66906,-0.66905 2.141,-0.68985 2.7304,-0.0386 0.61342,0.67783 0.55438,1.2823 -0.12277,1.257 -0.75872,-0.0284 -1.2526,0.75188 -0.8658,1.368 0.57652,0.91846 1.4969,0.98758 3.1391,0.23575 0.83948,-0.38432 1.8989,-0.69734 2.3542,-0.69558 l 0.82792,0.003 -1.1855,0.67758 c -0.65201,0.37267 -1.8057,1.2642 -2.5638,1.9812 -1.1013,1.0416 -1.5612,1.3036 -2.2879,1.3036 -0.50022,0 -1.0518,-0.17149 -1.2258,-0.3811 z m 50.537,-2.5681 -1.7056,-1.827 1.1097,-1.1097 2.143,1.1418 c 1.1786,0.628 2.143,1.2487 2.143,1.3793 0,0.39976 -1.438,2.2968 -1.7198,2.2688 -0.14552,-0.0145 -1.0321,-0.84845 -1.9702,-1.8533 z"
         stroke-width="0.26458"
         id="path2-7" />
    </clipPath>
    <clipPath
       id="clipPath150-3">
      <path
         d="m 73.365,271.61 c -6.0486,-1.6309 -8.5509,-8.4698 -4.8665,-13.3 0.9877,-1.2949 3.5777,-2.4774 5.4264,-2.4774 3.3905,0 6.0734,2.6 6.0734,5.8858 0,3.0984 -1.992,5.2267 -4.8922,5.2267 -1.3303,0 -3.1468,-0.78078 -3.4096,-1.4656 -0.34592,-0.90146 -0.1562,-1.6543 0.53026,-2.1041 0.67749,-0.44391 0.70947,-0.43823 1.2568,0.22312 0.82272,0.99417 1.7184,1.1133 2.8172,0.37481 1.9779,-1.3294 1.5448,-3.9753 -0.84731,-5.1764 -1.1021,-0.55336 -1.3225,-0.57907 -2.4755,-0.28875 -1.6896,0.42545 -3.1071,1.8413 -3.5317,3.5276 -0.41584,1.6514 0.11499,3.5728 1.4027,5.0772 4.0975,4.787 12.874,1.0709 12.849,-5.4407 -0.0026,-0.6653 -0.17941,-2.0349 -0.39308,-3.0435 -0.21367,-1.0086 -0.34438,-1.8779 -0.29047,-1.9318 0.16019,-0.16019 1.7021,1.8185 2.2049,2.8294 0.74477,1.4975 0.62984,4.7833 -0.23172,6.6248 -1.2275,2.6238 -4.2111,4.8776 -7.3173,5.5275 -1.7438,0.36485 -2.758,0.34873 -4.3051,-0.0684 z m 37.122,-1.611 -0.57283,-1.1791 0.80822,-0.5755 c 1.0831,-0.77124 2.3487,-2.5572 2.3487,-3.3145 0,-0.91061 -0.91541,-1.2533 -3.2802,-1.2281 l -2.0896,0.0223 0.18282,-3.8692 c 0.10056,-2.1281 0.20743,-3.888 0.2375,-3.9108 0.0301,-0.0229 0.50115,-0.12234 1.0469,-0.221 l 0.99218,-0.17938 v 6.374 h 0.64844 c 1.3557,0 3.3077,0.58907 3.9623,1.1957 1.3658,1.2657 0.68842,3.4503 -2.0463,6.5997 -0.69961,0.80572 -1.3605,1.465 -1.4686,1.465 -0.1081,0 -0.45439,-0.53058 -0.76944,-1.1791 z m -12.355,-0.61306 c -1.7155,-0.94257 -2.8224,-2.5198 -2.9896,-4.2598 -0.18534,-1.9288 0.08408,-2.9446 1.266,-4.7732 0.57876,-0.89545 1.0523,-1.6597 1.0523,-1.6983 0,-0.0386 -1.7264,0.12007 -3.8365,0.35269 -3.5797,0.39464 -3.8365,0.3933 -3.8365,-0.02 0,-0.24364 -0.07056,-0.79575 -0.15679,-1.2269 l -0.15679,-0.78395 4.324,-0.32378 c 2.3782,-0.17808 5.0086,-0.39293 5.8453,-0.47744 l 1.5214,-0.15367 v 1.3332 c 0,1.296 -0.0509,1.3842 -1.8252,3.1584 -2.1074,2.1074 -2.7147,3.4653 -2.1546,4.8175 0.39722,0.95897 1.3117,1.5958 2.8582,1.9903 0.6342,0.16178 1.1562,0.38318 1.16,0.49198 0.004,0.10881 -0.0733,0.67236 -0.17129,1.2523 -0.15597,0.9232 -0.26587,1.0537 -0.8825,1.0483 -0.38739,-0.003 -1.2952,-0.33082 -2.0174,-0.7276 z m 47.157,-2.3945 -4.6914,-3.106 3.9008,-3.8943 c 2.1454,-2.1419 4.0259,-3.8943 4.1788,-3.8943 0.15291,0 0.62772,0.36703 1.0551,0.81563 l 0.7771,0.81563 -2.8849,2.7963 c -2.7054,2.6223 -2.8535,2.8192 -2.3812,3.1655 0.27699,0.20308 1.7715,1.1642 3.3212,2.1359 l 2.8176,1.7667 -0.43646,1.1755 c -0.24005,0.64652 -0.55546,1.2101 -0.70092,1.2525 -0.14546,0.0423 -2.3756,-1.3207 -4.9558,-3.029 z m -20.537,2.1921 c -1.29,-1.64 -2.1505,-5.2559 -2.1539,-9.0518 -0.002,-1.9586 0.0489,-2.1828 0.49409,-2.1828 0.27285,0 0.8384,-0.0678 1.2568,-0.15061 l 0.76068,-0.15062 0.048,2.4018 c 0.0481,2.4042 0.67304,5.3078 1.1425,5.3078 0.13731,0 0.92271,-0.29765 1.7453,-0.66145 0.82262,-0.36381 1.5883,-0.66146 1.7014,-0.66146 0.19408,0 0.78671,1.4171 0.78671,1.8812 0,0.19724 -2.885,2.4275 -4.5356,3.5063 -0.68345,0.44669 -0.71139,0.44135 -1.246,-0.23826 z m 9.0171,-5.5903 c -0.62156,-1.4004 -1.0728,-2.6036 -1.0027,-2.6736 0.0701,-0.07 0.61477,-0.21655 1.2104,-0.32547 l 1.0829,-0.19803 1.3088,2.6081 c 0.71984,1.4344 1.3088,2.7293 1.3088,2.8775 0,0.14933 -0.61909,0.26681 -1.3891,0.2636 l -1.3891,-0.006 -1.1301,-2.5462 z m -71.22,-3.6441 c -0.17396,-0.2096 -0.2795,-0.59822 -0.23454,-0.8636 0.04496,-0.26538 -0.18145,-0.7457 -0.50313,-1.0674 -1.0772,-1.0772 -1.1046,-2.7379 -0.06244,-3.7801 0.66906,-0.66905 2.141,-0.68985 2.7304,-0.0386 0.61342,0.67783 0.55438,1.2823 -0.12277,1.257 -0.75872,-0.0284 -1.2526,0.75188 -0.8658,1.368 0.57652,0.91846 1.4969,0.98758 3.1391,0.23575 0.83948,-0.38432 1.8989,-0.69734 2.3542,-0.69558 l 0.82792,0.003 -1.1855,0.67758 c -0.65201,0.37267 -1.8057,1.2642 -2.5638,1.9812 -1.1013,1.0416 -1.5612,1.3036 -2.2879,1.3036 -0.50022,0 -1.0518,-0.17149 -1.2258,-0.3811 z m 50.537,-2.5681 -1.7056,-1.827 1.1097,-1.1097 2.143,1.1418 c 1.1786,0.628 2.143,1.2487 2.143,1.3793 0,0.39976 -1.438,2.2968 -1.7198,2.2688 -0.14552,-0.0145 -1.0321,-0.84845 -1.9702,-1.8533 z"
         stroke-width="0.26458"
         id="path2-79" />
    </clipPath>
  </defs>
  <g
     inkscape:groupmode="layer"
     id="layer1"
     inkscape:label="Layer 1"
     style="display:inline" />
  <g
     inkscape:groupmode="layer"
     id="layer2"
     inkscape:label="Layer 2"
     style="display:inline" />
  <g
     inkscape:groupmode="layer"
     id="layer3"
     inkscape:label="Layer 3"
     style="display:inline"
     sodipodi:insensitive="true">
    <path
       d="M 12.605049,17.731073 C 6.556597,16.100196 4.0543482,9.2612296 7.738687,4.43069 8.726365,3.1357448 11.316318,1.9532717 13.164941,1.9532717 c 3.390462,0 6.073219,2.5999751 6.073219,5.8858162 0,3.0984411 -1.991992,5.2266841 -4.892072,5.2266841 -1.330297,0 -3.146693,-0.780787 -3.409464,-1.465578 -0.345912,-0.901456 -0.156193,-1.6542797 0.530246,-2.1040637 0.677476,-0.4439107 0.709454,-0.4382327 1.256739,0.22312 0.822699,0.9941727 1.718319,1.1133307 2.8171,0.3748047 C 17.518561,8.7646758 17.085463,6.1187308 14.693424,4.9176998 13.591317,4.364337 13.37091,4.3386279 12.217959,4.6289518 10.528382,5.0544018 9.11093,6.4702459 8.686316,8.1565847 8.27049,9.8080193 8.801299,11.729375 10.08898,13.23378 c 4.097435,4.787051 12.873391,1.070944 12.848661,-5.4406611 -0.0026,-0.6653011 -0.179408,-2.034863 -0.393069,-3.0434711 -0.21366,-1.0086081 -0.34437,-1.8779371 -0.290466,-1.931842 0.160184,-0.160189 1.702076,1.818463 2.204822,2.8293672 0.744748,1.4975168 0.629827,4.783284 -0.231709,6.624849 -1.227493,2.623815 -4.210996,4.877607 -7.317128,5.527489 -1.743798,0.364847 -2.757905,0.348725 -4.305042,-0.06844 z m 37.121213,-1.611027 -0.572818,-1.179057 0.808199,-0.575503 c 1.083069,-0.771234 2.348606,-2.557224 2.348606,-3.314477 0,-0.910609 -0.915384,-1.2533457 -3.280119,-1.2281337 l -2.089523,0.02228 0.182816,-3.8692208 c 0.10055,-2.128071 0.207418,-3.8879503 0.237488,-3.9108413 0.03007,-0.02289 0.501142,-0.122341 1.046832,-0.221001 l 0.992163,-0.1793799 v 3.1869885 3.1869891 h 0.64842 c 1.355654,0 3.307599,0.589072 3.962183,1.1957367 1.365713,1.2657304 0.688404,3.4502724 -2.046229,6.5997364 -0.699593,0.805719 -1.360461,1.464944 -1.468594,1.464944 -0.108135,0 -0.454374,-0.530577 -0.769424,-1.179059 z m -12.3547,-0.613058 c -1.715474,-0.942572 -2.822329,-2.519751 -2.989527,-4.259829 -0.18533,-1.9288244 0.08408,-2.9446372 1.265928,-4.7732372 0.578744,-0.8954479 1.052261,-1.6597008 1.052261,-1.6983401 0,-0.03864 -1.726364,0.1200722 -3.836363,0.3526902 -3.579588,0.394635 -3.836363,0.3932938 -3.836363,-0.02004 0,-0.24364 -0.07055,-0.7957568 -0.156784,-1.2269279 L 28.713927,3.0973593 33.037795,2.7735794 c 2.378128,-0.1780791 5.008462,-0.3929292 5.845186,-0.4774442 l 1.521317,-0.1536629 v 1.3332372 c 0,1.2960279 -0.05094,1.3841778 -1.825167,3.158449 -2.107303,2.1073589 -2.714602,3.4652835 -2.154502,4.8175135 0.397208,0.958969 1.311656,1.595757 2.858082,1.990264 0.63419,0.161787 1.156163,0.38318 1.159938,0.491984 0.0038,0.108804 -0.0733,0.672357 -0.171286,1.252339 -0.155969,0.923196 -0.265861,1.053744 -0.882486,1.048333 -0.387379,-0.0034 -1.295172,-0.330821 -2.017315,-0.727604 z m 47.155899,-2.39454 -4.691243,-3.105975 3.900715,-3.8943081 c 2.145393,-2.14187 4.025821,-3.8943092 4.178734,-3.8943092 0.152908,0 0.627706,0.3670351 1.055103,0.8156332 l 0.777084,0.8156329 -2.884786,2.7962571 c -2.705296,2.6222707 -2.853455,2.8192327 -2.381192,3.1655054 0.276981,0.2030867 1.771483,1.1642467 3.321121,2.1359127 l 2.817522,1.766662 -0.436444,1.175499 c -0.24004,0.646525 -0.55545,1.210141 -0.700907,1.252481 -0.145458,0.04234 -2.375525,-1.320707 -4.955707,-3.028991 z m -20.536575,2.1921 c -1.289992,-1.639998 -2.150401,-5.255921 -2.153878,-9.0517962 -0.0019,-1.9586278 0.04895,-2.182813 0.494086,-2.182813 0.272844,0 0.838375,-0.06778 1.256739,-0.1506141 l 0.760656,-0.1506138 0.048,2.4017449 c 0.04805,2.4041881 0.67302,5.3078162 1.142439,5.3078162 0.137303,0 0.922681,-0.297656 1.745281,-0.661458 0.822601,-0.363803 1.588236,-0.661459 1.701411,-0.661459 0.194078,0 0.786689,1.417065 0.786689,1.881151 0,0.197248 -2.884871,2.427496 -4.535482,3.506305 -0.68344,0.446686 -0.71138,0.441344 -1.245945,-0.238263 z M 73.007738,9.7142273 C 72.386187,8.3138168 71.934993,7.1106768 72.005086,7.0405828 c 0.07009,-0.07009 0.614752,-0.216558 1.210358,-0.325475 l 1.082913,-0.198029 1.308764,2.6080808 c 0.71982,1.4344454 1.308761,2.7293064 1.308761,2.8774724 0,0.149326 -0.619074,0.266806 -1.389025,0.263594 l -1.389028,-0.0058 -1.130091,-2.5462007 z M 1.7891905,6.0700898 C 1.6152385,5.8604859 1.5096975,5.4718637 1.5546545,5.2064869 1.5996145,4.9411098 1.3732075,4.460789 1.0515345,4.1391078 -0.02561956,3.0619268 -0.05305046,1.4012157 0.98909454,0.35904266 1.6581345,-0.3100153 3.1300338,-0.3308143 3.7194135,0.32046266 4.3328229,0.99828973 4.2737822,1.6027817 3.5966475,1.5774087 2.8379418,1.5489787 2.3441165,2.3292967 2.7308728,2.9454628 3.3073735,3.8639239 4.2276972,3.9330439 5.8698703,3.1812129 6.709323,2.7968889 7.768705,2.4838757 8.224051,2.4856287 l 0.827902,0.0032 -1.185441,0.677575 C 7.214519,3.5390706 6.060816,4.4306045 5.3027266,5.1475915 4.2014112,6.1891968 3.7415955,6.4512047 3.0149238,6.4512047 2.5147205,6.4512047 1.9631385,6.2797105 1.7891875,6.070106 Z M 52.324436,3.501966 50.618874,1.6750137 51.173707,1.1201677 51.728539,0.56532173 53.871431,1.7071317 c 1.178589,0.627995 2.142892,1.2486821 2.142892,1.3793051 0,0.399765 -1.437973,2.296831 -1.719749,2.268801 C 54.149058,5.3407568 53.262495,4.5067889 52.324436,3.501966 Z"
       style="fill:#ffffff;stroke-width:0.0700035"
       id="path1761" />
  </g>
</svg>
